<svg xmlns="http://www.w3.org/2000/svg" width="235" height="44" viewBox="0 0 235 44">
    <defs>
        <linearGradient id="prefix__a" x1="1.07%" x2="98.756%" y1="51.568%" y2="48.443%">
            <stop offset="0%" stop-color="#8472ED"/>
            <stop offset="100%" stop-color="#B786F6"/>
        </linearGradient>
    </defs>
    <g fill="none" fill-rule="evenodd">
        <path fill="#8974EE" d="M24.893 35.066c.085-1.174.443-2.246 1.18-3.162 2.083-2.59 3.377-4.204 5.565-6.606.807-.886 1.445-.458 1.728.23 1.28 3.114 1.981 5.006 3.107 8.212 1.28 3.65-1.566 7.607-5.43 7.692-.37.008-.741-.013-1.112-.02-3.093-.484-5.267-3.217-5.038-6.346z" opacity=".5" transform="translate(.4)"/>
        <path fill="url(#prefix__a)" d="M222.756 11.592c8.311 0 11.433 7.298 11.433 12.74 0 6.75-4.725 12.277-11.39 12.277-4.22 0-6.202-2.025-7.046-2.91v9.913h-7.003V12.394h6.581v2.573h.127c1.392-1.772 3.712-3.375 7.298-3.375zM18.46.022c3.516 0 7.033-.031 10.549.009 3.629.04 6.372 1.963 7.413 5.351.817 2.659.292 5.156-1.5 7.337-6.016 7.32-12.032 14.64-18.052 21.958-1.104 1.341-2.208 2.683-3.347 3.995-2.792 3.22-7.513 3.73-10.622 1.169-3.369-2.775-3.885-7.465-1.115-10.897C5.157 24.768 8.601 20.648 12 16.494c.204-.251.289-.6.43-.903-.354-.11-.703-.3-1.06-.316-1.223-.057-2.45-.106-3.673-.064-4.16.143-7.627-3.13-7.673-7.478C-.02 3.425 3.25.124 7.674.036c3.594-.071 7.19-.014 10.785-.014zm74.528 11.57c7.13 0 12.36 5.653 12.36 12.783 0 .928-.084 1.308-.168 1.856H87.63c.422 2.784 2.742 4.43 5.484 4.43 2.152 0 3.291-.97 4.261-2.194h7.172c-1.139 2.616-2.784 4.64-4.767 5.99-1.94 1.393-4.26 2.11-6.666 2.11-6.707 0-12.403-5.442-12.403-12.403 0-6.54 5.147-12.572 12.277-12.572zm67.29-7.003v31.219h-6.666v-2.532h-.085c-.59.97-2.278 3.291-7.003 3.291-7.087 0-11.728-5.484-11.728-12.53 0-7.931 5.653-12.445 11.602-12.445 4.134 0 6.117 2.025 6.876 2.784V4.59h7.003zm31.893 7.045c8.522 0 12.614 6.708 12.614 12.446 0 5.737-4.092 12.445-12.614 12.445-8.522 0-12.614-6.708-12.614-12.445 0-5.738 4.092-12.446 12.614-12.446zM78.77 4.59v6.455l-9.957 17.76h9.957v7.004H59.068v-5.232l10.758-18.984H59.068V4.589H78.77zm43.453 7.003c2.236 0 4.725.928 5.99 2.025 1.266 1.097 2.7 2.953 2.7 7.552v14.639h-7.003V22.699c-.014-1.708-.229-4.526-3.67-4.526-3.837 0-4 3.171-4.007 4.7v12.935h-7.004V12.394h6.54v2.489h.084c.717-1.14 2.193-3.291 6.37-3.291zm55.603 0v7.045c-3.248.085-5.526.76-5.526 4.303v12.868h-7.003V12.394h6.58v2.489h.085c.59-1.14 1.814-3.291 5.864-3.291zm43.496 6.54c-3.84 0-5.864 3.205-5.864 5.99 0 2.953 2.194 5.948 5.864 5.948s5.864-2.995 5.864-5.948c0-2.785-2.025-5.99-5.864-5.99zm-73.575 0c-4.05 0-5.949 3.163-5.949 5.863 0 3.628 2.574 6.033 5.864 6.033 4.388 0 5.99-3.586 5.99-6.033 0-2.826-2.024-5.864-5.905-5.864zm44.423.041c-3.037 0-5.61 2.49-5.61 5.907s2.573 5.906 5.61 5.906c3.038 0 5.611-2.49 5.611-5.906 0-3.418-2.573-5.907-5.61-5.907zm-99.141-.675c-3.628 0-5.02 2.616-5.316 4.008h10.632c-.296-1.392-1.688-4.008-5.316-4.008z" transform="translate(.4)"/>
    </g>
</svg>
